<?xml version="1.0" standalone="no"?>
<!DOCTYPE svg PUBLIC "-//W3C//DTD SVG 20010904//EN"
 "http://www.w3.org/TR/2001/REC-SVG-20010904/DTD/svg10.dtd">
<svg version="1.0" xmlns="http://www.w3.org/2000/svg"
 width="1600.000000pt" height="1600.000000pt" viewBox="0 0 1600.000000 1600.000000"
 preserveAspectRatio="xMidYMid meet">

<g transform="translate(0.000000,1600.000000) scale(0.100000,-0.100000)"
fill="#000000" stroke="none">
<path d="M2510 11089 c-236 -29 -434 -96 -600 -204 -252 -163 -412 -400 -484
-715 -21 -94 -21 -106 -21 -1180 0 -1164 -1 -1146 52 -1313 115 -366 377 -623
763 -745 160 -50 272 -66 480 -66 212 0 322 16 490 70 183 59 322 139 449 259
102 96 164 181 227 310 97 200 124 344 124 673 l0 222 -360 0 -360 0 0 -177
c-1 -108 -6 -209 -15 -258 -40 -224 -195 -378 -425 -421 -198 -38 -420 17
-543 134 -49 47 -106 142 -130 216 l-22 71 0 1015 0 1015 22 71 c27 84 87 179
146 229 61 53 171 103 260 120 281 53 536 -53 642 -269 49 -99 64 -194 65
-408 l0 -178 360 0 360 0 0 223 c0 328 -27 472 -124 672 -109 222 -269 383
-496 498 -96 48 -259 101 -380 122 -113 19 -375 28 -480 14z"/>
<path d="M8420 11094 c-319 -38 -549 -137 -724 -311 -148 -147 -234 -307 -287
-533 -29 -123 -37 -400 -16 -536 50 -310 186 -535 440 -725 135 -101 247 -159
597 -311 235 -102 306 -137 405 -203 211 -140 299 -316 267 -538 -38 -265
-247 -421 -542 -404 -245 15 -416 136 -474 337 -9 30 -19 115 -23 187 l-6 133
-354 0 -353 0 0 -147 c0 -284 54 -482 185 -678 164 -246 427 -410 761 -475
312 -60 666 -22 919 98 57 28 125 65 152 83 71 49 199 176 249 245 101 141
178 349 205 551 15 116 6 412 -16 513 -68 309 -232 542 -505 720 -89 58 -328
173 -550 265 -232 96 -344 154 -440 226 -163 124 -230 279 -202 469 28 194
143 314 342 356 146 31 320 3 435 -70 128 -83 185 -210 185 -418 l0 -78 351 0
351 0 -5 178 c-6 220 -30 324 -112 487 -147 294 -416 484 -784 555 -102 20
-366 34 -451 24z"/>
<path d="M4685 11018 c-3 -7 -4 -929 -3 -2048 l3 -2035 1055 0 1055 0 3 333 2
332 -695 0 -695 0 0 535 0 535 595 0 595 0 0 325 0 325 -595 0 -595 0 0 520 0
520 695 0 695 0 -2 333 -3 332 -1053 3 c-837 2 -1054 0 -1057 -10z"/>
<path d="M10475 11018 c-3 -7 -4 -929 -3 -2048 l3 -2035 360 0 360 0 0 2045 0
2045 -358 3 c-281 2 -359 0 -362 -10z"/>
<path d="M11930 7295 l0 -365 1325 0 1325 0 0 365 0 365 -1325 0 -1325 0 0
-365z"/>
<path d="M1681 6158 c-5 -13 -25 -58 -45 -101 -20 -43 -36 -80 -36 -83 0 -2
29 -4 65 -4 l64 0 81 96 c44 52 80 100 80 105 0 5 -45 9 -100 9 -95 0 -101 -1
-109 -22z"/>
<path d="M9672 6153 c-6 -16 -26 -63 -46 -105 l-35 -78 67 0 67 0 75 90 c41
50 76 97 78 105 3 12 -13 15 -96 15 -100 0 -100 0 -110 -27z"/>
<path d="M2365 5896 c-65 -21 -101 -43 -139 -88 -60 -69 -66 -107 -66 -403 0
-308 6 -340 77 -416 65 -70 129 -92 253 -87 82 3 102 8 148 33 98 53 142 135
142 261 l0 74 -85 0 -85 0 -1 -47 c0 -69 -19 -114 -58 -140 -62 -42 -159 -23
-194 36 -15 25 -17 61 -17 283 0 181 4 260 13 277 30 60 116 87 180 56 49 -23
67 -54 74 -130 l6 -65 85 0 84 0 -4 88 c-3 62 -10 99 -25 127 -32 61 -102 121
-164 139 -62 19 -168 20 -224 2z"/>
<path d="M3201 5894 c-103 -37 -171 -110 -191 -210 -7 -35 -10 -147 -8 -312
l3 -257 28 -57 c52 -106 147 -158 287 -158 140 0 235 52 287 158 l28 57 0 280
c0 245 -2 287 -18 332 -24 68 -103 142 -177 166 -65 21 -180 21 -239 1z m203
-169 c51 -34 56 -63 56 -322 0 -207 -2 -243 -18 -273 -45 -92 -199 -92 -244 0
-16 30 -18 66 -18 273 0 198 3 245 16 272 16 34 44 58 79 68 32 9 103 -1 129
-18z"/>
<path d="M8755 5896 c-63 -20 -99 -42 -137 -84 -65 -72 -70 -103 -66 -429 3
-327 4 -330 90 -410 63 -57 127 -76 242 -71 80 3 99 8 146 34 60 33 112 99
130 162 5 20 10 106 10 190 l0 152 -150 0 -150 0 0 -75 0 -75 60 0 60 0 0 -75
c0 -91 -15 -126 -66 -150 -58 -27 -120 -16 -161 29 l-33 36 0 269 0 269 25 31
c31 36 84 55 132 46 71 -13 103 -52 103 -125 l0 -40 91 0 92 0 -5 68 c-3 40
-13 84 -26 108 -30 58 -105 121 -165 139 -61 18 -167 18 -222 1z"/>
<path d="M14152 5891 c-108 -37 -167 -128 -167 -256 1 -147 50 -210 230 -295
166 -79 198 -117 174 -204 -25 -92 -179 -103 -224 -16 -8 16 -15 45 -15 65 l0
36 -87 -3 -88 -3 3 -55 c4 -81 27 -132 80 -183 66 -61 129 -81 241 -75 94 5
134 20 189 72 62 58 77 99 77 211 0 84 -4 107 -22 141 -32 61 -104 118 -191
154 -109 45 -160 76 -177 110 -32 61 -9 131 50 150 77 26 149 -14 161 -89 l7
-41 85 0 85 0 -6 58 c-13 149 -126 243 -291 242 -34 -1 -85 -9 -114 -19z"/>
<path d="M1430 5400 l0 -490 253 2 252 3 0 80 0 80 -167 3 -168 2 0 125 0 125
145 0 145 0 0 80 0 80 -145 0 -145 0 0 120 0 120 168 2 167 3 3 78 3 77 -256
0 -255 0 0 -490z"/>
<path d="M3890 5400 l0 -490 240 0 240 0 0 85 0 85 -155 0 -155 0 0 405 0 405
-85 0 -85 0 0 -490z"/>
<path d="M4602 5403 l3 -488 253 -3 252 -2 0 85 0 85 -165 0 -165 0 0 125 0
125 140 0 140 0 0 80 0 80 -140 0 -140 0 0 120 0 120 165 0 165 0 0 80 0 80
-255 0 -255 0 2 -487z"/>
<path d="M5922 5403 l3 -488 185 0 c150 0 194 3 235 18 64 22 118 66 153 125
l27 47 3 278 c3 232 1 286 -12 325 -22 64 -63 112 -127 147 l-54 30 -208 3
-207 3 2 -488z m368 309 c64 -31 70 -58 70 -305 0 -244 -6 -273 -62 -307 -26
-16 -50 -20 -115 -20 l-83 0 0 325 0 325 78 0 c53 0 88 -5 112 -18z"/>
<path d="M6805 5878 c-2 -7 -13 -69 -25 -138 -11 -69 -23 -137 -26 -152 l-6
-28 65 0 64 0 56 153 c32 83 57 158 57 165 0 9 -25 12 -90 12 -64 0 -92 -4
-95 -12z"/>
<path d="M7222 5403 l3 -488 88 -3 87 -3 0 491 0 490 -90 0 -90 0 2 -487z"/>
<path d="M7672 5403 l3 -488 87 -3 88 -3 2 328 3 327 119 -327 119 -327 104 0
103 0 0 490 0 490 -91 0 -90 0 3 -325 c2 -179 -1 -318 -5 -308 -4 10 -58 155
-120 323 l-112 305 -108 3 -107 3 2 -488z"/>
<path d="M9422 5403 l3 -488 253 -3 252 -2 0 85 0 85 -165 0 -165 0 0 125 0
125 140 0 140 0 0 80 0 80 -140 0 -140 0 0 120 0 120 165 0 165 0 0 80 0 80
-255 0 -255 0 2 -487z"/>
<path d="M10182 5403 l3 -488 87 -3 88 -3 2 326 3 326 119 -326 119 -326 101
3 101 3 3 488 2 487 -90 0 -91 0 3 -324 c2 -178 1 -323 -1 -321 -2 2 -56 147
-120 322 l-117 318 -107 3 -107 3 2 -488z"/>
<path d="M11082 5403 l3 -488 88 -3 87 -3 0 491 0 490 -90 0 -90 0 2 -487z"/>
<path d="M11540 5400 l0 -490 253 2 252 3 0 80 0 80 -167 3 -168 2 0 125 0
125 145 0 145 0 0 80 0 80 -145 0 -145 0 0 120 0 120 168 2 167 3 3 78 3 77
-256 0 -255 0 0 -490z"/>
<path d="M12292 5488 c3 -391 4 -404 25 -443 26 -50 65 -86 123 -116 39 -21
59 -24 155 -24 94 0 116 3 151 22 56 30 103 79 128 133 20 43 21 64 24 438 l3
392 -90 0 -91 0 0 -370 c0 -409 -1 -414 -62 -446 -44 -23 -121 -14 -153 16
-14 13 -29 40 -35 59 -6 21 -10 186 -10 389 l0 352 -85 0 -86 0 3 -402z"/>
<path d="M13162 5403 l3 -488 85 0 85 0 3 178 2 177 54 0 53 0 69 -177 70
-178 102 -3 c56 -1 102 0 102 3 0 3 -38 90 -85 193 -78 171 -84 188 -68 197
10 6 37 29 59 51 55 55 78 124 77 229 -1 108 -29 181 -89 234 -72 63 -109 71
-331 71 l-193 0 2 -487z m393 285 c44 -47 55 -110 30 -174 -25 -66 -59 -84
-162 -84 l-83 0 0 151 0 151 91 -4 c90 -3 91 -3 124 -40z"/>
</g>
</svg>
